# Blender 5.0.1
# www.blender.org
mtllib cube.mtl
o Cube
v 0.483945 0.043260 -0.395009
v 0.467703 -0.363936 0.202265
v 0.194840 0.594484 -0.027071
v 0.178598 0.187288 0.570204
v -0.178598 -0.187288 -0.570204
v -0.194840 -0.594484 0.027071
v -0.467703 0.363936 -0.202265
v -0.483945 -0.043260 0.395009
vn 0.0225 0.5632 -0.8260
vn -0.3998 0.7624 0.5089
vn -0.9163 -0.3189 -0.2423
vn -0.0225 -0.5632 0.8260
vn 0.9163 0.3189 0.2423
vn 0.3998 -0.7624 -0.5089
vt 0.875000 0.500000
vt 0.625000 0.750000
vt 0.625000 0.500000
vt 0.375000 1.000000
vt 0.375000 0.750000
vt 0.625000 0.000000
vt 0.375000 0.250000
vt 0.375000 0.000000
vt 0.375000 0.500000
vt 0.125000 0.750000
vt 0.125000 0.500000
vt 0.625000 0.250000
vt 0.875000 0.750000
vt 0.625000 1.000000
s 0
usemtl Material
f 5 3 1
f 3 8 4
f 7 6 8
f 2 8 6
f 1 4 2
f 5 2 6
f 5 7 3
f 3 7 8
f 7 5 6
f 2 4 8
f 1 3 4
f 5 1 2
